<!-- Generated by IcoMoon.io -->
<svg version="1.1" xmlns="http://www.w3.org/2000/svg" width="32" height="32" viewBox="0 0 32 32">
<path d="M28.8 0h-25.584c-1.76 0-3.2 1.44-3.2 3.2l-0.016 28.8 6.4-6.4h22.4c1.76 0 3.2-1.44 3.2-3.2v-19.2c0-1.76-1.44-3.2-3.2-3.2zM28.8 22.4h-23.728l-1.872 1.872v-21.072h25.6v19.2zM16 12.8c1.76 0 3.2-1.44 3.2-3.2s-1.44-3.2-3.2-3.2c-1.76 0-3.2 1.44-3.2 3.2s1.44 3.2 3.2 3.2zM22.4 18.288c0-1.296-0.768-2.448-1.952-2.96-1.36-0.592-2.864-0.928-4.448-0.928s-3.088 0.336-4.448 0.928c-1.184 0.512-1.952 1.664-1.952 2.96v0.912h12.8v-0.912z"></path>
</svg>
